<svg width="1198" height="1226" viewBox="0 0 1198 1226" fill="none" xmlns="http://www.w3.org/2000/svg">
<path fill-rule="evenodd" clip-rule="evenodd" d="M997.1 786.062V612.059C997.1 560.948 976.948 539.771 916.847 565.725L702.486 689.486C691.819 695.645 678.486 687.947 678.486 675.63V620.467C678.486 614.751 681.536 609.469 686.486 606.611L916.847 473.612L972.927 441.544C983.645 435.415 983.677 419.971 972.985 413.798L606.389 202.144C601.438 199.285 595.339 199.285 590.389 202.144L208 422.916C203.05 425.774 200 431.056 200 436.772V785.877C200 791.593 203.05 796.875 208 799.733L598.71 1025.31L989.1 799.918C994.051 797.06 997.1 791.778 997.1 786.062ZM908.847 754.782L606.697 929.228C601.753 932.082 595.664 932.087 590.716 929.239L287.584 754.778C282.623 751.923 279.565 746.635 279.565 740.911V482.072C279.565 476.356 282.615 471.074 287.565 468.216L590.389 293.38C595.339 290.522 601.438 290.522 606.389 293.38L815.073 413.865C825.74 420.023 825.74 435.419 815.073 441.577L608.043 561.106C603.093 563.964 600.043 569.246 600.043 574.962V750.163L600.291 812.663C600.339 824.924 613.593 832.576 624.236 826.488L678.486 795.452L892.847 671.691C903.514 665.532 916.847 673.23 916.847 685.547V740.926C916.847 746.642 913.797 751.924 908.847 754.782Z" fill="#059212"/>
</svg>
